<svg width="34" height="49" viewBox="0 0 34 49" fill="none" xmlns="http://www.w3.org/2000/svg">
<g id="Figma">
<path id="Rectangle 55" d="M32 9.5C32 13.6421 28.6421 17 24.5 17L17 17V2H24.5C28.6421 2 32 5.35786 32 9.5V9.5Z" stroke="#333333" stroke-width="3"/>
<path id="Rectangle 55_2" d="M2 9.5C2 13.6421 5.35786 17 9.5 17L17 17V2H9.5C5.35786 2 2 5.35786 2 9.5V9.5Z" stroke="#333333" stroke-width="3"/>
<path id="Rectangle 55_3" d="M2 24.5C2 28.6421 5.35786 32 9.5 32L17 32V17H9.5C5.35786 17 2 20.3579 2 24.5V24.5Z" stroke="#333333" stroke-width="3"/>
<path id="Rectangle 55_4" d="M2 39.5C2 43.6421 5.35786 47 9.5 47V47C13.6421 47 17 43.6421 17 39.5V32H9.5C5.35786 32 2 35.3579 2 39.5V39.5Z" stroke="#333333" stroke-width="3"/>
<path id="Rectangle 55_5" d="M17 24.5C17 28.6421 20.3579 32 24.5 32V32C28.6421 32 32 28.6421 32 24.5V24.5C32 20.3579 28.6421 17 24.5 17V17C20.3579 17 17 20.3579 17 24.5V24.5Z" stroke="#333333" stroke-width="3"/>
</g>
</svg>
